# This file uses centimeters as units for non-parametric coordinates.

mtllib Terrapin.mtl
g default
v 0.000000 0.600000 2.300000
v 1.500000 0.500000 1.500000
v 0.000000 0.600000 -4.400000
v 1.500000 0.500000 -4.099999
v 1.000000 0.600000 2.000000
v 0.000000 0.600000 0.750000
v 0.000000 -0.500000 4.500000
v 0.700000 -0.500000 4.000000
v 1.000000 -0.500000 7.100000
v 2.500000 -0.500000 6.000000
v 3.000000 0.000000 2.000000
v 1.500000 0.500000 -1.299999
v 0.000000 -1.000000 2.000000
v 1.000000 -0.700000 3.000000
v 1.500000 -1.000000 3.500000
v 2.500000 -0.500000 3.000000
v 1.030000 -0.080000 -1.000000
v 1.000000 0.000000 -4.099999
v 0.000000 0.100000 -4.300000
v 0.400000 0.300000 -4.099999
v 0.000000 -0.500000 -2.700000
v 0.600000 0.000000 -4.099999
v 0.500000 -0.300000 -2.300000
v 0.600000 0.600000 -4.099999
v 1.250000 -0.487969 1.600000
v 0.000000 -0.855599 0.000000
v 0.000000 -0.750000 -1.000000
v 1.000000 0.600000 -1.300000
v 0.000000 0.600000 -1.250000
v 0.600000 -0.500000 3.900000
v 0.550000 -0.100000 3.110000
v 1.500000 0.500000 -1.000000
v 0.000000 0.600000 -1.000000
v 1.030000 -0.080000 -0.500000
v 1.000000 0.600000 -1.000000
v 1.913848 0.086152 -2.000000
v 1.913848 0.086152 -2.470690
v 1.417024 -0.417024 -2.682332
v 1.417024 -0.417024 -2.217667
v 0.724285 -0.414283 -2.940006
v 0.792480 -0.415041 -2.462115
v 0.625013 -0.400010 -2.500020
v 1.500000 0.500000 -2.000000
v 1.500000 0.500000 -2.469466
v 1.000000 0.600000 -2.000000
v 0.926833 0.600000 -2.469622
v 0.000000 0.600000 -2.000000
v 0.000000 0.600000 -2.469309
v 0.520000 0.600000 1.500000
v -1.500000 0.500000 1.500000
v -1.500000 0.500000 -4.099999
v -1.000000 0.600000 2.000000
v -0.700000 -0.500000 4.000000
v -1.000000 -0.500000 7.100000
v -2.500000 -0.500000 6.000000
v -3.000000 0.000000 2.000000
v -1.500000 0.500000 -1.299999
v -1.000000 -0.700000 3.000000
v -1.500000 -1.000000 3.500000
v -2.500000 -0.500000 3.000000
v -1.030000 -0.080000 -1.000000
v -1.000000 0.000000 -4.099999
v -0.400000 0.300000 -4.099999
v -0.600000 0.000000 -4.099999
v -0.500000 -0.300000 -2.300000
v -0.600000 0.600000 -4.099999
v -1.250000 -0.487969 1.600000
v -1.000000 0.600000 -1.300000
v -0.600000 -0.500000 3.900000
v -0.550000 -0.100000 3.110000
v -1.500000 0.500000 -1.000000
v -1.030000 -0.080000 -0.500000
v -1.000000 0.600000 -1.000000
v -1.913848 0.086152 -2.000000
v -1.913848 0.086152 -2.470690
v -1.417024 -0.417024 -2.682332
v -1.417024 -0.417024 -2.217667
v -0.724285 -0.414283 -2.940006
v -0.792480 -0.415041 -2.462115
v -0.625013 -0.400010 -2.500020
v -1.500000 0.500000 -2.000000
v -1.500000 0.500000 -2.469466
v -1.000000 0.600000 -2.000000
v -0.926833 0.600000 -2.469622
v -0.520000 0.600000 1.500000
vt 0.000000 0.000000
vt 1.000000 0.000000
vt 0.623809 0.000000
vt 0.000000 0.164007
vt 0.000000 0.000000
vt 1.000000 0.000000
vt 1.000000 1.000000
vt 0.000000 1.000000
vt 0.000000 0.000000
vt 1.000000 0.000000
vt 1.000000 1.000000
vt 0.000000 1.000000
vt 0.000000 0.000000
vt 1.000000 0.000000
vt 0.500000 1.000000
vt 0.474041 0.000000
vt 1.000000 0.000000
vt 0.000000 0.000000
vt 1.000000 0.000000
vt 0.500000 1.000000
vt 0.000000 0.000000
vt 1.000000 0.000000
vt 1.000000 1.000000
vt 0.000000 1.000000
vt 0.000000 0.000000
vt 1.000000 0.000000
vt 1.000000 1.000000
vt 0.000000 1.000000
vt 0.000000 0.000000
vt 1.000000 0.000000
vt 0.500000 1.000000
vt 0.000000 0.000000
vt 1.000000 0.000000
vt 0.000000 0.000000
vt 1.000000 0.000000
vt 1.000000 1.000000
vt 0.000000 1.000000
vt 0.000000 0.000000
vt 1.000000 0.000000
vt 1.000000 1.000000
vt 0.000000 1.000000
vt 0.803897 0.080186
vt 1.000000 0.403208
vt 0.504642 0.203476
vt 0.000000 0.000000
vt 1.000000 0.000000
vt 1.000000 1.000000
vt 0.000000 1.000000
vt 1.000000 0.211617
vt 0.213523 0.529042
vt 0.000000 0.000000
vt 0.810253 0.191270
vt 0.801197 1.000000
vt 0.555556 0.555556
vt 1.000000 0.555556
vt 1.000000 0.222222
vt 0.411932 0.000000
vt 0.351785 0.141843
vt 0.000000 0.302902
vt 1.000000 0.288802
vt 1.000000 0.631391
vt 0.000000 0.503279
vt 0.119718 1.000000
vt 0.119718 0.000000
vt 0.466272 0.000000
vt 0.252541 0.000000
vt 1.000000 0.433362
vt 0.088131 0.430173
vt 0.000000 0.448457
vt 0.079176 0.009126
vt 0.045268 0.889571
vt 0.000000 0.910297
vt 0.522631 0.477532
vt 0.000000 1.000000
vt 0.828567 0.585717
vt 0.948837 0.727594
vt 0.388645 0.677898
vt 1.000000 0.000000
vt 0.527317 0.855831
vt 0.591481 0.000000
vt 0.827696 0.000000
vt 0.834048 1.000000
vt 0.000000 1.000000
vt 0.000000 0.000000
vt 0.834048 0.000000
vt 0.172304 -0.000000
vt 1.000000 0.000000
vt 1.000000 1.000000
vt 0.165952 0.000000
vt 1.000000 0.500000
vt 1.000000 0.704259
vt 0.000000 0.000000
vt 0.408519 0.000000
vt 0.413848 0.827696
vt 0.509730 0.538419
vt 0.470353 0.724266
vt 0.000000 0.713499
vt 1.000000 0.795741
vt 1.000000 1.000000
vt 0.411932 1.000000
vt 0.000000 1.000000
vt 0.586152 0.827696
vt 0.500000 0.706043
vt 0.500000 0.000000
vt 0.000000 0.000000
vt 0.165952 1.000000
vt 0.000000 1.000000
vt 0.043477 0.086954
vt 0.377438 0.415041
vt 1.000000 0.750000
vt 0.452462 0.808708
vt 0.461536 0.765884
vt 0.432985 0.765434
vt 0.000000 0.794980
vt 0.000000 0.758617
vt 0.247808 0.495617
vt 0.342057 0.438629
vt 0.324381 0.078723
vt 0.000000 0.000000
vt 0.466272 0.000000
vt 0.324381 0.078723
vt 0.623809 0.000000
vt 1.000000 0.000000
vt 1.000000 0.433362
vt 0.522631 0.477532
vt 0.252541 0.000000
vt 1.000000 0.000000
vt 1.000000 1.000000
vt 0.119718 1.000000
vt 0.000000 0.000000
vt 1.000000 0.000000
vt 1.000000 1.000000
vt 0.000000 1.000000
vt 0.000000 0.000000
vt 1.000000 0.000000
vt 0.500000 1.000000
vt 0.474041 0.000000
vt 1.000000 0.000000
vt 0.088131 0.430173
vt 0.586152 0.827696
vt 0.591481 0.000000
vt 1.000000 0.000000
vt 0.000000 0.000000
vt 1.000000 0.000000
vt 0.500000 1.000000
vt 0.000000 0.000000
vt 0.119718 0.000000
vt 1.000000 1.000000
vt 0.000000 1.000000
vt 0.000000 0.000000
vt 1.000000 0.000000
vt 1.000000 1.000000
vt 0.000000 1.000000
vt 0.000000 0.000000
vt 1.000000 0.000000
vt 0.500000 1.000000
vt 0.351785 0.141843
vt 0.079176 0.009126
vt 1.000000 0.000000
vt 0.803897 0.080186
vt 0.000000 1.000000
vt 1.000000 0.000000
vt 1.000000 1.000000
vt 1.000000 1.000000
vt 0.172304 -0.000000
vt 0.000000 0.000000
vt 0.827696 0.000000
vt 0.834048 1.000000
vt 0.000000 1.000000
vt 0.411932 0.000000
vt 1.000000 0.000000
vt 1.000000 1.000000
vt 0.000000 1.000000
vt 1.000000 0.631391
vt 1.000000 1.000000
vt 0.801197 1.000000
vt 0.377438 0.415041
vt 0.165952 0.000000
vt 1.000000 0.000000
vt 0.000000 0.000000
vt 0.834048 0.000000
vt 0.828567 0.585717
vt 0.000000 1.000000
vt 0.000000 0.000000
vt 0.810253 0.191270
vt 1.000000 0.211617
vt 0.213523 0.529042
vt 0.948837 0.727594
vt 0.000000 0.000000
vt 0.555556 0.555556
vt 1.000000 0.555556
vt 1.000000 0.222222
vt 0.000000 0.000000
vt 0.000000 1.000000
vt 0.000000 0.448457
vt 0.000000 0.164007
vt 0.408519 0.000000
vt 0.413848 0.827696
vt 0.452462 0.808708
vt 1.000000 0.795741
vt 1.000000 1.000000
vt 0.411932 1.000000
vt 0.000000 0.794980
vt 0.000000 1.000000
vt 1.000000 0.403208
vt 0.000000 0.000000
vt 1.000000 0.000000
vt 1.000000 0.288802
vt 0.000000 0.302902
vt 0.000000 0.000000
vt 0.045268 0.889571
vt 0.000000 0.910297
vt 0.509730 0.538419
vt 1.000000 0.500000
vt 1.000000 0.704259
vt 0.470353 0.724266
vt 0.000000 0.503279
vt 0.000000 0.713499
vt 0.000000 0.000000
vt 0.000000 1.000000
vt 1.000000 0.000000
vt 0.388645 0.677898
vt 0.527317 0.855831
vt 0.500000 0.706043
vt 0.500000 0.000000
vt 0.000000 0.000000
vt 0.165952 1.000000
vt 0.000000 1.000000
vt 0.043477 0.086954
vt 0.247808 0.495617
vt 1.000000 0.750000
vt 0.461536 0.765884
vt 0.432985 0.765434
vt 0.000000 0.758617
vt 0.342057 0.438629
vt 0.504642 0.203476
vn 0.468607 0.803073 0.368078
vn 0.468607 0.803073 0.368078
vn 0.513834 0.790205 0.333993
vn 0.133059 0.989058 0.063708
vn 0.245872 0.965490 0.085880
vn 0.236560 0.971617 0.000000
vn 0.078815 0.996889 0.000000
vn 0.421799 0.813232 0.400923
vn 0.421799 0.813232 0.400923
vn 0.199668 0.961365 0.189500
vn 0.233250 0.957261 0.171016
vn 0.292296 0.953273 0.076384
vn 0.707107 0.707107 0.000000
vn 0.707107 0.707107 0.000000
vn 0.707107 0.707107 0.000000
vn -0.908836 0.407777 0.087952
vn -0.908836 0.407777 0.087952
vn -0.908836 0.407777 0.087952
vn 0.033997 -0.972317 0.231180
vn 0.113603 -0.970529 0.212526
vn -0.000000 -0.992522 0.122069
vn 0.201302 -0.976087 0.082041
vn 0.251600 -0.963444 0.092049
vn 0.251600 -0.963444 0.092049
vn 0.286555 -0.952993 -0.098442
vn 0.299325 -0.939101 -0.168803
vn 0.707107 -0.707107 0.000000
vn 0.707107 -0.707107 0.000000
vn 0.707107 -0.707107 0.000000
vn 0.445169 -0.869893 -0.212392
vn 0.607319 -0.774472 -0.177081
vn 0.319754 -0.897317 -0.304268
vn -0.464361 -0.884415 -0.046686
vn -0.515695 -0.856208 0.031096
vn -0.440719 -0.892620 -0.094853
vn 0.741021 -0.286323 0.607377
vn 0.741021 -0.286323 0.607377
vn 0.741021 -0.286323 0.607377
vn 0.698793 -0.618580 -0.359231
vn 0.717516 -0.672139 -0.182756
vn 0.717516 -0.672139 -0.182756
vn 0.698793 -0.618580 -0.359231
vn 0.000000 0.000000 -1.000000
vn 0.000000 0.000000 -1.000000
vn 0.000000 0.000000 -1.000000
vn 0.619443 -0.784331 -0.033401
vn 0.532546 -0.841443 -0.091485
vn 0.530902 -0.824178 -0.197164
vn 0.530902 -0.824178 -0.197164
vn -0.105117 -0.986101 0.128665
vn -0.050037 -0.991601 0.119261
vn -0.160618 -0.954940 0.249582
vn 0.073085 -0.944599 -0.319985
vn 0.035350 -0.986068 -0.162543
vn -0.007532 -0.994495 -0.104513
vn 0.073085 -0.944599 -0.319985
vn 0.544719 -0.785652 -0.293310
vn 0.544719 -0.785652 -0.293310
vn -0.801726 -0.580741 -0.141331
vn -0.801726 -0.580741 -0.141331
vn -0.777431 -0.611981 -0.145188
vn -0.777431 -0.611981 -0.145188
vn -0.507124 -0.860475 0.049076
vn -0.751907 -0.642254 -0.148815
vn 0.000000 0.000000 -1.000000
vn 0.000000 0.000000 -1.000000
vn 0.471347 -0.224450 -0.852909
vn 0.471347 -0.224450 -0.852909
vn 0.471347 -0.224450 -0.852909
vn 0.471347 -0.224450 -0.852909
vn -0.000000 1.000000 -0.000000
vn -0.000000 1.000000 0.000000
vn -0.000000 1.000000 0.000000
vn 0.707107 0.707107 0.000000
vn 0.707107 0.707107 0.000000
vn 0.707107 0.707107 0.000000
vn 0.079695 0.996795 -0.006962
vn 0.158903 0.987197 -0.013882
vn 0.134517 0.990820 -0.013482
vn 0.067413 0.997702 -0.006757
vn 0.000000 1.000000 0.000000
vn 0.000000 1.000000 0.000000
vn 0.450627 -0.884078 -0.123863
vn 0.776933 -0.629584 0.000000
vn 0.639120 -0.762933 -0.097257
vn 0.098538 0.995133 0.000000
vn 0.196116 0.980581 0.000000
vn 0.189664 0.981823 -0.007137
vn 0.095263 0.995446 -0.003585
vn 0.000000 1.000000 0.000000
vn 0.000000 1.000000 0.000000
vn -0.340790 0.849071 0.403658
vn -0.340790 0.849071 0.403658
vn -0.291491 0.853176 0.432578
vn -0.291491 0.853176 0.432578
vn 0.000000 -0.980581 0.196116
vn -0.159983 -0.977471 0.137682
vn -0.224645 -0.938852 0.260943
vn 0.654323 -0.730556 0.195320
vn 0.654323 -0.730556 0.195320
vn -0.348446 -0.915550 -0.200883
vn 0.569442 -0.727674 0.382396
vn -0.388971 0.842178 0.373413
vn 0.000000 1.000000 0.000000
vn -0.468607 0.803073 0.368078
vn -0.513834 0.790205 0.333993
vn -0.468607 0.803073 0.368078
vn -0.133059 0.989058 0.063708
vn -0.078815 0.996889 0.000000
vn -0.236560 0.971617 0.000000
vn -0.245872 0.965490 0.085880
vn -0.421799 0.813232 0.400923
vn -0.421799 0.813232 0.400923
vn -0.233250 0.957261 0.171016
vn -0.199668 0.961365 0.189500
vn -0.292296 0.953273 0.076384
vn -0.707107 0.707107 0.000000
vn -0.707107 0.707107 0.000000
vn -0.707107 0.707107 0.000000
vn 0.908836 0.407777 0.087952
vn 0.908836 0.407777 0.087952
vn 0.908836 0.407777 0.087952
vn -0.033997 -0.972317 0.231180
vn -0.201302 -0.976087 0.082041
vn -0.113603 -0.970529 0.212526
vn -0.251600 -0.963444 0.092049
vn -0.299325 -0.939101 -0.168803
vn -0.286555 -0.952993 -0.098442
vn -0.251600 -0.963444 0.092049
vn -0.707107 -0.707107 0.000000
vn -0.707107 -0.707107 0.000000
vn -0.707107 -0.707107 0.000000
vn -0.445169 -0.869893 -0.212392
vn -0.319754 -0.897317 -0.304268
vn -0.607319 -0.774472 -0.177081
vn 0.464361 -0.884415 -0.046686
vn 0.440719 -0.892620 -0.094853
vn 0.515695 -0.856208 0.031096
vn -0.741021 -0.286322 0.607377
vn -0.741021 -0.286322 0.607377
vn -0.741021 -0.286322 0.607377
vn -0.698793 -0.618580 -0.359231
vn -0.698793 -0.618580 -0.359231
vn -0.717516 -0.672139 -0.182756
vn -0.717516 -0.672139 -0.182756
vn -0.000000 0.000000 -1.000000
vn -0.000000 0.000000 -1.000000
vn -0.000000 0.000000 -1.000000
vn -0.619443 -0.784331 -0.033401
vn -0.530902 -0.824178 -0.197164
vn -0.530902 -0.824178 -0.197164
vn -0.532546 -0.841443 -0.091485
vn 0.105117 -0.986101 0.128665
vn 0.160618 -0.954940 0.249582
vn 0.050037 -0.991601 0.119261
vn -0.073085 -0.944599 -0.319985
vn -0.073085 -0.944599 -0.319985
vn 0.007532 -0.994495 -0.104513
vn -0.035350 -0.986068 -0.162543
vn -0.544720 -0.785652 -0.293310
vn -0.544720 -0.785652 -0.293310
vn 0.801726 -0.580741 -0.141331
vn 0.777431 -0.611981 -0.145188
vn 0.777431 -0.611981 -0.145188
vn 0.801726 -0.580741 -0.141331
vn 0.507124 -0.860475 0.049076
vn 0.751907 -0.642254 -0.148815
vn 0.000000 0.000000 -1.000000
vn 0.000000 0.000000 -1.000000
vn -0.471347 -0.224450 -0.852909
vn -0.471347 -0.224450 -0.852909
vn -0.471347 -0.224450 -0.852909
vn -0.471347 -0.224450 -0.852909
vn 0.000000 1.000000 -0.000000
vn -0.707107 0.707107 0.000000
vn -0.707107 0.707107 0.000000
vn -0.707107 0.707107 0.000000
vn -0.079695 0.996795 -0.006962
vn -0.067413 0.997702 -0.006757
vn -0.134517 0.990820 -0.013482
vn -0.158903 0.987197 -0.013882
vn -0.450627 -0.884078 -0.123863
vn -0.639120 -0.762933 -0.097257
vn -0.776933 -0.629584 0.000000
vn -0.098538 0.995133 0.000000
vn -0.095263 0.995446 -0.003585
vn -0.189664 0.981823 -0.007137
vn -0.196116 0.980581 0.000000
vn 0.340790 0.849072 0.403658
vn 0.291491 0.853176 0.432577
vn 0.291491 0.853176 0.432577
vn 0.340790 0.849072 0.403658
vn 0.159983 -0.977471 0.137682
vn 0.224645 -0.938852 0.260943
vn -0.654323 -0.730556 0.195320
vn -0.654323 -0.730556 0.195320
vn 0.348446 -0.915550 -0.200883
vn -0.569442 -0.727674 0.382396
vn 0.388971 0.842179 0.373412
s 1
g polySurface1
usemtl initialShadingGroup
f 1/1/1 31/65/2 49/118/3
s 2
f 5/3/4 2/2/5 32/67/6 35/73/7
s 1
f 31/66/2 1/6/1 7/7/8 30/63/9
s 2
f 2/9/5 5/10/4 9/11/10 10/12/11
f 2/13/5 10/14/11 11/15/12
f 2/16/5 11/17/12 32/68/6
s 3
f 36/102/13 43/80/14 12/87/15
s off
f 9/18/16 5/19/17 8/20/18
s 4
f 8/21/19 30/64/20 13/23/21 14/24/22
f 10/25/23 9/26/24 15/27/25 16/28/26
s off
f 11/29/27 10/30/28 16/31/29
s 4
f 25/58/30 32/70/31 11/33/32 16/42/26
s 7
f 15/37/33 8/35/34 14/36/35
s off
f 17/88/36 36/86/37 12/87/38
s 8
f 4/92/39 37/81/40 38/82/41 18/83/42
s 9
f 24/57/43 4/39/44 20/40/45
s 4
f 17/48/46 27/61/47 21/47/48 23/53/49
s 11
f 41/109/50 39/89/51 17/78/52
f 18/84/53 38/85/54 40/75/55 22/74/56
s 4
f 20/51/57 23/52/49 21/49/48 19/50/58
s 12
f 23/52/59 20/51/60 22/74/61 42/76/62
s 7
f 9/34/63 8/35/34 15/37/33
s 12
f 22/74/61 40/75/64 42/76/62
s 9
f 18/54/65 22/55/66 20/56/45 4/92/44
s off
f 3/38/67 24/57/68 20/40/69 19/41/70
s 2
f 49/118/71 35/73/7 33/69/72 6/4/73
s 3
f 4/92/74 44/93/75 37/94/76
s 2
f 46/111/77 44/98/78 4/99/79 24/100/80
f 48/114/81 46/111/77 24/100/80 3/101/82
s 4
f 15/43/25 25/58/30 16/42/26
f 14/45/22 13/46/21 26/60/83 25/59/30
f 17/48/46 12/32/84 32/70/31 34/71/85
f 25/59/30 26/60/83 27/61/47 34/72/85
s 2
f 28/95/86 12/90/87 43/91/88 45/96/89
f 29/62/90 28/95/86 45/96/89 47/97/91
s 14
f 5/5/92 31/66/93 30/63/94 8/8/95
s 4
f 13/23/21 30/64/20 7/22/96
s 2
f 35/73/7 32/67/6 12/90/87 28/95/86
f 33/69/72 35/73/7 28/95/86 29/62/90
s 4
f 34/71/85 32/70/31 25/58/30
f 34/72/85 27/61/47 17/48/46
s 11
f 42/77/97 41/109/50 17/78/52 23/79/98
s 3
f 36/102/13 37/103/76 44/104/75 43/80/14
s 8
f 37/105/40 36/86/99 39/106/100 38/107/41
s 11
f 38/108/54 39/89/51 41/109/50 40/116/55
s 2
f 43/110/88 44/98/78 46/111/77 45/112/89
f 45/113/89 46/111/77 48/114/81 47/115/91
s 11
f 40/116/55 41/109/50 42/117/97
s 7
f 14/44/35 25/58/101 15/43/33
s 8
f 39/106/100 36/86/99 17/88/102
s 14
f 49/118/103 31/65/93 5/3/92
s 2
f 5/3/4 35/73/7 49/118/71
f 1/1/104 49/118/71 6/4/73
s 15
f 1/119/105 85/121/106 70/120/107
s 2
f 52/122/108 73/125/109 71/124/110 50/123/111
s 15
f 70/126/107 69/129/112 7/128/113 1/127/105
s 2
f 50/130/111 55/133/114 54/132/115 52/131/108
f 50/134/111 56/136/116 55/135/114
f 50/137/111 71/139/110 56/138/116
s 17
f 74/140/117 57/142/118 81/141/119
s off
f 54/143/120 53/145/121 52/144/122
s 4
f 53/146/123 58/149/124 13/148/21 69/147/125
f 55/150/126 60/153/127 59/152/128 54/151/129
s off
f 56/154/130 60/156/131 55/155/132
s 4
f 67/157/133 60/160/127 56/159/134 71/158/135
s 20
f 59/161/136 58/163/137 53/162/138
s off
f 61/164/139 57/142/140 74/165/141
s 21
f 51/166/142 62/169/143 76/168/144 75/167/145
s 22
f 66/170/146 63/172/147 51/171/148
s 4
f 61/173/149 65/176/150 21/175/151 27/174/152
s 24
f 79/177/153 61/179/154 77/178/155
f 62/180/156 64/183/157 78/182/158 76/181/159
s 4
f 63/184/160 19/187/161 21/186/151 65/185/150
s 25
f 65/185/162 80/188/163 64/183/164 63/184/165
s 20
f 54/189/166 59/161/136 53/162/138
s 25
f 64/183/164 80/188/163 78/182/167
s 22
f 62/190/168 51/166/148 63/192/147 64/191/169
s off
f 3/193/170 19/194/171 63/172/172 66/170/173
s 2
f 85/121/174 6/196/73 33/195/72 73/125/109
s 17
f 51/166/175 75/198/176 82/197/177
s 2
f 84/199/178 66/202/179 51/201/180 82/200/181
f 48/203/81 3/204/82 66/202/179 84/199/178
s 4
f 59/205/128 60/160/127 67/157/133
f 58/206/124 67/209/133 26/208/182 13/207/21
f 61/173/149 72/211/183 71/158/135 57/210/184
f 67/209/133 72/212/183 27/174/152 26/208/182
s 2
f 68/213/185 83/216/186 81/215/187 57/214/188
f 29/217/90 47/218/91 83/216/186 68/213/185
s 26
f 52/219/189 53/220/190 69/129/191 70/126/192
s 4
f 13/148/21 7/221/96 69/147/125
s 2
f 73/125/109 68/213/185 57/214/188 71/124/110
f 33/195/72 29/217/90 68/213/185 73/125/109
s 4
f 72/211/183 67/157/133 71/158/135
f 72/212/183 61/173/149 27/174/152
s 24
f 80/222/193 65/223/194 61/179/154 79/177/153
s 17
f 74/140/117 81/141/119 82/225/177 75/224/176
s 21
f 75/226/145 76/228/144 77/227/195 74/165/196
s 24
f 76/229/159 78/230/158 79/177/153 77/178/155
s 2
f 81/231/187 83/232/186 84/199/178 82/200/181
f 83/233/186 47/234/91 48/203/81 84/199/178
s 24
f 78/230/158 80/235/193 79/177/153
s 20
f 58/236/137 59/205/136 67/157/197
s 21
f 77/227/195 61/164/198 74/165/196
s 26
f 85/121/199 52/122/189 70/120/192
s 2
f 52/122/108 85/121/174 73/125/109
f 1/119/104 6/196/73 85/121/174
