# This file uses centimeters as units for non-parametric coordinates.

mtllib Viper.mtl
g default
v 0.500000 0.800000 2.850000
v 0.500000 0.900000 3.000000
v 0.000000 1.700000 -4.099999
v 0.500000 1.700000 -4.100000
v 0.000000 0.600000 -4.099999
v 0.200000 0.600000 -4.100000
v 0.200000 0.600000 -2.500000
v 0.500000 0.600000 1.000000
v 0.000000 0.600000 -2.500000
v 0.000000 0.600000 1.000000
v 0.500000 1.600000 -0.999999
v 0.500000 1.700000 -2.000000
v 0.000000 1.600000 -0.999999
v 0.000000 1.700000 -2.000000
v 0.500000 0.800000 -4.100000
v 1.550000 0.800000 -2.000000
v 0.500000 0.900000 -4.100000
v 1.700000 0.900000 -2.000000
v 1.700000 0.900000 -1.300000
v 1.550000 0.800000 -1.300000
v 0.000000 1.700000 -4.900000
v 0.500000 1.700000 -4.900000
v 0.500000 1.100000 -4.900001
v 0.000000 1.100000 -4.900000
v 0.500000 1.100000 -5.600000
v 0.000000 1.100000 -5.600000
v 0.500000 1.200000 -5.700000
v 0.000000 1.200000 -5.700000
v 0.000000 1.700000 -5.600000
v 0.000000 1.600000 -5.700000
v 0.500000 1.600000 -5.700000
v 0.500000 1.700000 -5.600000
v 0.500000 0.600000 -1.300000
v 0.000000 0.600000 -1.300000
v 1.150000 0.800000 0.600000
v 1.300000 0.900000 0.600000
v 0.200000 1.600000 -0.999999
v 0.150000 0.600000 1.000000
v 0.150000 0.900000 3.000000
v 0.150000 0.800000 2.850000
v 0.150000 1.250000 1.000000
v 0.000000 1.250000 1.000000
v 0.150000 0.700000 1.900000
v 0.000000 0.700000 1.900000
v 0.500000 1.248760 1.000000
v 0.500000 0.691430 1.900000
v 0.500000 1.110000 1.800000
v 0.150000 1.110000 1.800000
v 0.000000 1.110000 1.800000
v 0.200000 1.700000 -2.000000
v 0.200000 1.700000 -4.099999
v 0.200000 1.700000 -4.900000
v 0.200000 1.700000 -5.600000
v 0.200000 1.600000 -5.700000
v 0.200000 1.200000 -5.700000
v 0.200000 1.100000 -5.600000
v 0.200000 1.100000 -4.900000
v 0.200000 0.600000 -1.300000
v 0.490000 0.600000 -1.340000
v 0.490000 0.600000 1.000000
v 0.490000 1.700000 -2.000000
v 0.490000 1.600000 -0.999999
v 0.490000 0.793333 -4.100000
v 0.490000 0.642963 -2.392593
v 0.490000 0.793333 -4.046668
v 0.490000 1.083333 -4.873334
v 0.490000 1.200000 -5.700000
v 0.490000 1.700000 -5.600000
v 0.490000 0.600000 -1.300000
v 0.490000 0.900000 3.000000
v 0.490000 0.800000 2.850000
v 0.490000 1.248802 1.000000
v 0.490000 0.691716 1.900000
v 0.490000 1.110000 1.800000
v 0.490000 1.700000 -4.100000
v 0.490000 1.700000 -4.900000
v 0.490000 1.600000 -5.700000
v 0.490000 1.100000 -5.600000
v 0.490000 1.100000 -4.900001
v -0.500000 0.800000 2.850000
v -0.500000 0.900000 3.000000
v -0.500000 1.700000 -4.100000
v -0.200000 0.600000 -4.100000
v -0.200000 0.600000 -2.500000
v -0.500000 0.600000 1.000000
v -0.500000 1.600000 -0.999999
v -0.500000 1.700000 -2.000000
v -0.500000 0.800000 -4.100000
v -1.550000 0.800000 -2.000000
v -0.500000 0.900000 -4.100000
v -1.700000 0.900000 -2.000000
v -1.700000 0.900000 -1.300000
v -1.550000 0.800000 -1.300000
v -0.500000 1.700000 -4.900000
v -0.500000 1.100000 -4.900001
v -0.500000 1.100000 -5.600000
v -0.500000 1.200000 -5.700000
v -0.500000 1.600000 -5.700000
v -0.500000 1.700000 -5.600000
v -0.500000 0.600000 -1.300000
v -1.150000 0.800000 0.600000
v -1.300000 0.900000 0.600000
v -0.200000 1.600000 -0.999999
v -0.150000 0.600000 1.000000
v -0.150000 0.900000 3.000000
v -0.150000 0.800000 2.850000
v -0.150000 1.250000 1.000000
v -0.150000 0.700000 1.900000
v -0.500000 1.248760 1.000000
v -0.500000 0.691430 1.900000
v -0.500000 1.110000 1.800000
v -0.150000 1.110000 1.800000
v -0.200000 1.700000 -2.000000
v -0.200000 1.700000 -4.099999
v -0.200000 1.700000 -4.900000
v -0.200000 1.700000 -5.600000
v -0.200000 1.600000 -5.700000
v -0.200000 1.200000 -5.700000
v -0.200000 1.100000 -5.600000
v -0.200000 1.100000 -4.900000
v -0.200000 0.600000 -1.300000
v -0.490000 0.600000 -1.340000
v -0.490000 0.600000 1.000000
v -0.490000 1.700000 -2.000000
v -0.490000 1.600000 -0.999999
v -0.490000 0.793333 -4.100000
v -0.490000 0.642963 -2.392593
v -0.490000 0.793333 -4.046668
v -0.490000 1.083333 -4.873334
v -0.490000 1.200000 -5.700000
v -0.490000 1.700000 -5.600000
v -0.490000 0.600000 -1.300000
v -0.490000 0.900000 3.000000
v -0.490000 0.800000 2.850000
v -0.490000 1.248802 1.000000
v -0.490000 0.691716 1.900000
v -0.490000 1.110000 1.800000
v -0.490000 1.700000 -4.100000
v -0.490000 1.700000 -4.900000
v -0.490000 1.600000 -5.700000
v -0.490000 1.100000 -5.600000
v -0.490000 1.100000 -4.900001
vt 0.625000 0.000000
vt 0.625000 0.250000
vt 0.375000 0.500000
vt 0.625000 0.500000
vt 0.375000 0.750000
vt 0.625000 1.000000
vt 0.625000 0.833333
vt 0.625000 0.916667
vt 0.375000 0.833333
vt 0.375000 0.916667
vt 0.625000 0.333333
vt 0.625000 0.416667
vt 0.375000 0.333333
vt 0.375000 0.416667
vt 0.000000 0.000000
vt 0.923913 0.000000
vt 1.000000 0.304348
vt 0.396739 0.478261
vt 0.000000 0.000000
vt 0.833333 0.000000
vt 1.000000 0.347222
vt 0.376603 0.000000
vt 1.000000 0.000000
vt 0.173077 0.339744
vt 0.000000 0.294872
vt 0.000000 0.000000
vt 0.923913 0.000000
vt 1.000000 0.304348
vt 0.396739 0.478261
vt 0.833333 0.000000
vt 1.000000 0.347222
vt 0.173077 0.339744
vt 0.000000 0.294872
vt 0.375000 0.500000
vt 0.375000 0.750000
vt 0.625000 0.750000
vt 0.375000 0.750000
vt 0.625000 0.595302
vt 0.781250 0.187500
vt 0.375000 1.000000
vt 0.187481 0.906241
vt 0.195293 0.714854
vt 0.625000 0.750000
vt 0.625000 0.750000
vt 0.375000 0.597109
vt 0.625000 0.500000
vt 0.625000 0.500000
vt 0.375000 0.500000
vt 0.375000 0.548550
vt 0.625000 0.547646
vt 0.625000 0.861637
vt 0.550300 0.000000
vt 0.375000 0.861462
vt 0.000000 0.294872
vt 0.173077 0.339744
vt 0.500000 0.333333
vt 0.500000 0.916667
vt 0.500000 0.250000
vt 0.500000 0.000000
vt 0.500000 1.000000
vt 0.500000 0.291667
vt 0.375000 0.291667
vt 0.500000 0.958333
vt 0.375000 0.958333
vt 0.008419 0.000000
vt 0.472640 0.180397
vt 0.000000 0.048106
vt 0.625000 0.291519
vt 0.585074 0.170473
vt 0.625000 0.954763
vt 0.204438 0.134801
vt 0.625000 0.275000
vt 0.421154 0.237821
vt 0.603368 0.000000
vt 0.500000 0.275000
vt 0.000000 1.000000
vt 0.307822 1.000000
vt 0.000000 0.000000
vt 0.153911 0.500000
vt 0.000000 1.000000
vt 0.592391 1.000000
vt 0.592390 0.000000
vt 0.000000 0.000000
vt 0.482971 0.416667
vt 0.477355 0.500000
vt 0.475216 0.500000
vt 0.473344 0.500000
vt 0.466163 0.548220
vt 0.454469 0.596534
vt 0.447740 0.750000
vt 0.446978 0.750000
vt 0.475000 0.861532
vt 0.625000 0.860693
vt 0.559735 0.000000
vt 0.620833 0.916667
vt 0.620266 0.416667
vt 0.620833 0.333333
vt 0.923913 0.000000
vt 0.913949 0.025000
vt 0.833333 0.000000
vt 0.000000 0.000000
vt 0.893116 0.000000
vt 0.625000 0.750000
vt 0.619316 0.595343
vt 0.619945 0.500000
vt 0.620000 0.861633
vt 0.620833 0.250000
vt 0.620833 0.000000
vt 0.620833 1.000000
vt 0.620833 0.291524
vt 0.620833 0.954882
vt 0.620833 0.275000
vt 0.620079 0.500000
vt 0.620007 0.500000
vt 0.619705 0.547665
vt 0.619091 0.750000
vt 0.619066 0.750000
vt 0.375000 0.548550
vt 0.466163 0.548220
vt 0.454469 0.596534
vt 0.375000 0.597109
vt 0.375000 0.750000
vt 0.625000 0.750000
vt 0.625000 0.833333
vt 0.375000 0.833333
vt 0.375000 0.916667
vt 0.500000 0.916667
vt 0.500000 0.958333
vt 0.375000 0.958333
vt 0.475000 0.861532
vt 0.375000 0.861462
vt 0.375000 0.416667
vt 0.482971 0.416667
vt 0.477355 0.500000
vt 0.375000 0.500000
vt 0.375000 0.333333
vt 0.500000 0.333333
vt 0.000000 0.000000
vt 0.923913 0.000000
vt 1.000000 0.304348
vt 0.396739 0.478261
vt 0.833333 0.000000
vt 1.000000 0.347222
vt 0.173077 0.339744
vt 0.000000 0.294872
vt 0.000000 0.000000
vt 0.923913 0.000000
vt 0.923913 0.000000
vt 0.893116 0.000000
vt 1.000000 0.304348
vt 0.396739 0.478261
vt 1.000000 0.347222
vt 1.000000 0.000000
vt 0.585074 0.170473
vt 0.173077 0.339744
vt 0.173077 0.339744
vt 0.000000 0.294872
vt 0.000000 0.294872
vt 0.550300 0.000000
vt 0.559735 0.000000
vt 0.833333 0.000000
vt 0.000000 0.000000
vt 0.475216 0.500000
vt 0.375000 0.500000
vt 0.375000 0.750000
vt 0.446978 0.750000
vt 0.473344 0.500000
vt 0.375000 0.500000
vt 0.375000 0.750000
vt 0.447740 0.750000
vt 0.204438 0.134801
vt 0.376603 0.000000
vt 0.625000 0.500000
vt 0.625000 0.750000
vt 0.781250 0.187500
vt 0.375000 1.000000
vt 0.187481 0.906241
vt 0.195293 0.714854
vt 0.625000 0.750000
vt 0.913949 0.025000
vt 0.000000 0.000000
vt 0.625000 0.861637
vt 0.625000 0.916667
vt 0.620833 0.916667
vt 0.620000 0.861633
vt 0.625000 0.954763
vt 0.620833 0.954882
vt 0.500000 0.291667
vt 0.620833 0.291524
vt 0.620833 0.333333
vt 0.500000 0.250000
vt 0.500000 0.000000
vt 0.620833 0.000000
vt 0.620833 0.250000
vt 0.375000 0.291667
vt 0.008419 0.000000
vt 0.603368 0.000000
vt 0.472640 0.180397
vt 0.000000 0.048106
vt 0.625000 0.291519
vt 0.620833 0.275000
vt 0.625000 0.275000
vt 0.421154 0.237821
vt 0.500000 1.000000
vt 0.620833 1.000000
vt 0.625000 0.416667
vt 0.620266 0.416667
vt 0.625000 0.333333
vt 0.625000 0.250000
vt 0.000000 1.000000
vt 0.307822 1.000000
vt 0.153911 0.500000
vt 0.000000 0.000000
vt 0.000000 1.000000
vt 0.592391 1.000000
vt 0.592390 0.000000
vt 0.000000 0.000000
vt 0.620079 0.500000
vt 0.620007 0.500000
vt 0.619945 0.500000
vt 0.619705 0.547665
vt 0.619316 0.595343
vt 0.619091 0.750000
vt 0.619066 0.750000
vt 0.625000 0.750000
vt 0.625000 0.860693
vt 0.833333 0.000000
vt 0.625000 0.000000
vt 0.500000 0.275000
vt 0.625000 1.000000
vt 0.625000 0.500000
vt 0.625000 0.500000
vt 0.625000 0.547646
vt 0.625000 0.595302
vn -0.000001 0.000000 -1.000000
vn 0.000000 0.000000 -1.000000
vn 0.000000 0.000000 -1.000000
vn -0.000001 0.000000 -1.000000
vn 0.000000 -1.000000 0.000000
vn 0.000000 -1.000000 0.000000
vn 0.152329 -0.988084 -0.022041
vn 0.000000 -1.000000 0.000000
vn 0.000000 -0.998470 0.055300
vn -0.003033 -0.998528 0.054164
vn -0.008074 -0.994071 0.108434
vn 0.000000 -0.993884 0.110432
vn 0.000000 -1.000000 0.000000
vn 0.000000 -1.000000 0.000000
vn 0.000000 0.998759 0.049814
vn -0.000000 0.998759 0.049814
vn -0.000000 1.000000 0.000000
vn 0.000000 1.000000 0.000000
vn 0.000000 0.990704 0.136034
vn 0.000469 0.990693 0.136112
vn 0.435700 -0.889923 -0.134921
vn 0.735316 -0.551487 -0.393919
vn 0.735316 -0.551487 -0.393919
vn 0.667633 -0.716034 -0.203868
vn 0.553763 -0.830645 0.058093
vn 0.366867 -0.929627 0.034656
vn 0.548369 -0.822555 -0.150648
vn 0.548370 -0.822554 -0.150648
vn 0.374559 -0.926084 -0.045531
vn 1.000000 0.000000 -0.000000
vn 1.000000 0.000000 0.000000
vn 1.000000 -0.000000 -0.000000
vn 0.548180 0.822270 -0.152875
vn 0.541524 0.837475 -0.073395
vn 0.531908 0.844301 0.065030
vn 0.310225 0.941941 0.128484
vn 0.236706 0.957112 0.167053
vn 0.474496 0.868694 0.142212
vn 0.695849 -0.684626 0.216985
vn 0.281188 -0.922062 0.265963
vn 0.496001 -0.858286 0.131635
vn 0.627439 -0.760422 0.167566
vn 0.089943 -0.995928 -0.006187
vn 0.083347 -0.996388 -0.016284
vn 0.172208 -0.983183 -0.060795
vn 0.528773 0.793159 -0.302156
vn -0.000000 1.000000 0.000000
vn 0.000000 1.000000 0.000000
vn -0.000001 -0.847998 -0.529999
vn 0.000000 -0.847998 -0.529999
vn 0.000000 -0.847998 -0.529999
vn -0.000001 -0.847998 -0.529999
vn -0.000000 1.000000 0.000000
vn 0.000000 1.000000 0.000000
vn -0.000000 -1.000000 0.000000
vn 0.000000 -1.000000 0.000000
vn 0.000000 -1.000000 0.000000
vn -0.000000 -1.000000 0.000000
vn 0.000000 -0.707107 -0.707107
vn -0.000001 -0.707106 -0.707107
vn -0.000001 -0.707106 -0.707107
vn 0.000000 -0.707107 -0.707107
vn 0.171644 -0.979912 0.101546
vn 0.129049 -0.990592 0.045545
vn 1.000000 0.000000 -0.000000
vn 1.000000 -0.000000 -0.000000
vn 1.000000 0.000000 0.000000
vn 1.000000 0.000000 0.000000
vn 1.000000 0.000000 0.000000
vn 1.000000 0.000000 0.000000
vn 0.000000 0.707106 -0.707108
vn 0.000000 0.707106 -0.707108
vn -0.000001 0.707105 -0.707108
vn -0.000001 0.707105 -0.707108
vn 0.529523 -0.794284 -0.297857
vn 1.000000 -0.000001 -0.000000
vn -0.006589 -0.998633 0.051850
vn 0.000000 -1.000000 0.000000
vn -0.013154 -0.994132 0.107367
vn 0.000902 0.985048 0.172279
vn 0.001920 0.985085 0.172060
vn 0.000978 0.990673 0.136258
vn 0.000000 -0.832051 0.554700
vn -0.006232 -0.939832 0.341579
vn -0.006765 -0.939448 0.342626
vn 0.000000 -0.832051 0.554699
vn 0.000000 0.985031 0.172380
vn -1.000000 -0.000000 -0.000000
vn -1.000000 -0.000000 -0.000000
vn -1.000000 -0.000000 -0.000000
vn -1.000000 -0.000000 -0.000000
vn 0.000943 0.985125 0.171837
vn 0.236456 0.957222 0.166779
vn 0.000000 0.998759 0.049814
vn -0.000000 0.998759 0.049814
vn 0.000000 0.985030 0.172381
vn 0.236375 0.957117 0.167496
vn 0.000000 0.985030 0.172380
vn 0.000579 0.985072 0.172142
vn 0.000001 0.236956 0.971520
vn 0.000000 0.236956 0.971520
vn 0.000000 0.236956 0.971520
vn 0.000001 0.236956 0.971520
vn -0.000000 1.000000 0.000000
vn -0.000000 1.000000 0.000000
vn -0.000000 1.000000 0.000000
vn -0.000021 0.707106 -0.707108
vn -0.000021 0.707106 -0.707108
vn -0.000030 0.000000 -1.000000
vn -0.000030 0.000000 -1.000000
vn 0.000001 -0.707106 -0.707107
vn 0.000001 -0.707106 -0.707107
vn -0.000000 -1.000000 0.000000
vn -0.000000 -1.000000 0.000000
vn -0.000000 -1.000000 0.000000
vn -0.000000 -1.000000 0.000000
vn 0.000000 -0.848000 -0.529996
vn 0.000000 -0.848000 -0.529996
vn 0.432083 -0.892056 -0.132439
vn 0.529525 -0.794282 -0.297857
vn 0.000000 -0.832051 0.554699
vn 0.000000 0.985031 0.172380
vn 0.000000 1.000000 0.000000
vn 0.000000 1.000000 0.000000
vn 0.000000 1.000000 0.000000
vn -0.000042 0.707106 -0.707107
vn -0.000042 0.707106 -0.707107
vn -0.000060 0.000000 -1.000000
vn -0.000060 0.000000 -1.000000
vn 0.000003 -0.707107 -0.707107
vn 0.000003 -0.707107 -0.707107
vn 0.000000 -0.848002 -0.529994
vn -0.000001 0.000000 -1.000000
vn -0.000001 0.000000 -1.000000
vn -0.152329 -0.988084 -0.022041
vn 0.000000 -1.000000 0.000000
vn 0.008074 -0.994071 0.108434
vn 0.003033 -0.998528 0.054164
vn 0.000000 -1.000000 0.000000
vn 0.000000 1.000000 0.000000
vn 0.000000 0.998759 0.049814
vn -0.000469 0.990693 0.136112
vn -0.435699 -0.889923 -0.134921
vn -0.667633 -0.716034 -0.203868
vn -0.735316 -0.551487 -0.393919
vn -0.735316 -0.551487 -0.393919
vn -0.366867 -0.929628 0.034656
vn -0.553763 -0.830645 0.058093
vn -0.374559 -0.926084 -0.045531
vn -0.548371 -0.822554 -0.150647
vn -0.548369 -0.822555 -0.150648
vn -1.000000 0.000000 -0.000000
vn -1.000000 -0.000000 -0.000000
vn -1.000000 0.000000 0.000000
vn -0.548180 0.822270 -0.152875
vn -0.531908 0.844301 0.065030
vn -0.541524 0.837475 -0.073395
vn -0.310225 0.941941 0.128484
vn -0.474496 0.868694 0.142212
vn -0.236706 0.957112 0.167053
vn -0.695849 -0.684626 0.216985
vn -0.627439 -0.760422 0.167566
vn -0.496001 -0.858286 0.131635
vn -0.281188 -0.922062 0.265963
vn -0.172208 -0.983183 -0.060795
vn -0.083347 -0.996388 -0.016284
vn -0.089943 -0.995928 -0.006187
vn -0.528773 0.793159 -0.302156
vn 0.000000 1.000000 0.000000
vn 0.000001 -0.847998 -0.529999
vn 0.000001 -0.847998 -0.529999
vn 0.000000 1.000000 0.000000
vn 0.000000 -1.000000 0.000000
vn 0.000000 -1.000000 0.000000
vn 0.000001 -0.707106 -0.707107
vn 0.000001 -0.707106 -0.707107
vn -0.171644 -0.979912 0.101546
vn -0.129049 -0.990592 0.045545
vn -1.000000 -0.000000 -0.000000
vn -1.000000 -0.000000 0.000000
vn -1.000000 -0.000000 0.000000
vn -1.000000 -0.000000 0.000000
vn -1.000000 -0.000000 0.000000
vn -1.000000 -0.000000 -0.000000
vn 0.000001 0.707105 -0.707108
vn 0.000001 0.707105 -0.707108
vn -0.529525 -0.794283 -0.297856
vn -1.000000 -0.000001 -0.000000
vn 0.000000 -1.000000 0.000000
vn 0.006589 -0.998633 0.051850
vn 0.013154 -0.994132 0.107367
vn -0.000978 0.990673 0.136258
vn -0.001920 0.985085 0.172060
vn -0.000902 0.985048 0.172279
vn 0.000000 -0.832051 0.554700
vn 0.000000 -0.832051 0.554699
vn 0.006765 -0.939448 0.342626
vn 0.006232 -0.939832 0.341579
vn 1.000000 -0.000000 -0.000000
vn 1.000000 -0.000000 -0.000000
vn 1.000000 -0.000000 -0.000000
vn 1.000000 -0.000000 -0.000000
vn -0.236456 0.957222 0.166779
vn -0.000943 0.985125 0.171837
vn 0.000000 0.998759 0.049814
vn 0.000000 0.998759 0.049814
vn -0.236375 0.957117 0.167496
vn -0.000000 0.985030 0.172381
vn -0.000579 0.985072 0.172142
vn -0.000001 0.236956 0.971520
vn -0.000001 0.236956 0.971520
vn 0.000000 1.000000 0.000000
vn 0.000000 1.000000 0.000000
vn 0.000000 1.000000 0.000000
vn 0.000021 0.707106 -0.707108
vn 0.000021 0.707106 -0.707108
vn 0.000030 0.000000 -1.000000
vn 0.000030 0.000000 -1.000000
vn 0.000001 -0.707106 -0.707107
vn 0.000001 -0.707106 -0.707107
vn 0.000000 -1.000000 0.000000
vn 0.000000 -1.000000 0.000000
vn 0.000000 -1.000000 0.000000
vn 0.000000 -1.000000 0.000000
vn 0.000000 -0.848000 -0.529996
vn 0.000000 -0.848000 -0.529996
vn -0.432084 -0.892056 -0.132439
vn -0.529528 -0.794281 -0.297856
vn 0.000000 -0.832051 0.554699
vn 0.000000 0.985031 0.172380
vn 0.000000 1.000000 0.000000
vn 0.000000 1.000000 -0.000000
vn 0.000000 1.000000 -0.000000
vn 0.000042 0.707107 -0.707107
vn 0.000042 0.707107 -0.707107
vn 0.000060 0.000000 -1.000000
vn 0.000060 0.000000 -1.000000
vn 0.000000 -0.707107 -0.707107
vn 0.000000 -0.707107 -0.707107
vn 0.000000 -0.848002 -0.529994
s 1
g polySurface2
usemtl initialShadingGroup
f 30/49/1 54/88/2 55/89/3 28/45/4
s 2
f 5/5/5 6/43/6 7/7/7 9/9/8
f 10/10/9 38/57/10 43/63/11 44/64/12
f 9/9/8 7/7/7 58/92/13 34/53/14
s 4
f 14/14/15 50/84/16 51/85/17 3/3/18
f 14/14/15 13/13/19 37/56/20 50/84/16
s 2
f 16/26/21 15/27/22 17/28/23 18/29/24
f 16/30/21 18/31/24 19/32/25 20/33/26
f 7/15/7 6/16/27 63/98/28 65/102/29
s 7
f 4/17/30 12/18/31 17/28/32
s 4
f 18/31/33 12/21/34 19/32/35
f 11/23/36 45/69/37 36/55/38
s 2
f 2/24/39 1/25/40 35/54/41 36/55/42
f 16/30/21 20/33/26 33/52/43 59/94/44 64/100/45
s 4
f 17/28/46 12/18/34 18/29/33
s 2
f 7/15/7 65/102/29 64/101/45
s 4
f 3/3/18 51/85/17 52/86/47 21/34/48
s 11
f 6/43/49 5/5/50 24/35/51 57/91/52
s 4
f 21/34/48 52/86/47 53/87/53 29/48/54
s 12
f 57/91/55 24/35/56 26/37/57 56/90/58
s 13
f 28/45/59 55/89/60 56/90/61 26/37/62
s 2
f 46/71/63 8/22/64 20/33/26 35/54/41
s 7
f 22/46/65 23/44/66 25/39/67 27/40/68 31/41/69 32/42/70
s 15
f 30/49/71 29/48/72 53/87/73 54/88/74
s 7
f 17/28/32 23/44/66 22/46/65 4/17/30
s 2
f 6/43/27 66/103/75 63/99/28
s 7
f 15/27/76 23/44/66 17/28/32
s 2
f 33/52/43 20/33/26 8/19/64
f 33/51/43 8/8/64 60/95/77 69/106/78
f 36/55/42 35/54/41 20/33/26 19/32/25
f 46/70/63 73/111/79 60/95/77 8/8/64
s 4
f 37/56/20 41/61/80 72/110/81 62/97/82
s 2
f 39/58/83 40/59/84 71/108/85 70/107/86
s 4
f 42/62/87 41/61/80 37/56/20 13/13/19
s off
f 39/65/88 48/74/89 43/66/90 40/67/91
s 4
f 45/68/37 72/110/81 74/112/92 47/72/93
f 36/55/38 45/69/37 47/73/93
s 2
f 1/25/40 46/71/63 35/54/41
f 40/60/84 43/63/11 73/111/79 71/109/85
s 4
f 12/12/94 61/96/95 62/97/82 11/11/36
s 2
f 34/53/14 58/92/13 38/57/10 10/10/9
s 4
f 11/23/36 36/55/38 19/32/35
f 19/32/35 12/21/34 11/23/36
f 47/72/93 74/112/92 70/107/96 2/2/97
f 41/76/80 42/77/87 49/79/98 48/78/99
s 18
f 48/80/100 49/81/101 44/82/102 43/83/103
s 4
f 36/55/38 47/73/93 2/24/97
f 50/84/16 61/96/95 75/113/104 51/85/17
f 52/86/47 51/85/17 75/113/104 76/114/105
f 53/87/53 52/86/47 76/114/105 68/105/106
s 15
f 54/88/74 53/87/73 68/105/107 77/115/108
s 1
f 55/89/3 54/88/2 77/115/109 67/104/110
s 13
f 56/90/61 55/89/60 67/104/111 78/116/112
s 12
f 23/44/113 79/117/114 78/116/115 25/36/116
s 11
f 6/43/49 57/91/52 79/117/117 66/103/118
s 2
f 58/92/13 7/7/7 59/93/44 69/106/78
f 65/102/29 63/98/28 15/27/119
f 64/100/45 59/94/44 7/20/7
f 64/101/45 65/102/29 15/27/119 16/26/21
f 63/99/28 66/103/75 23/44/120 15/27/119
f 69/106/78 60/95/77 38/57/10 58/92/13
f 60/95/77 73/111/79 43/63/11 38/57/10
s 4
f 62/97/82 72/110/81 45/68/37 11/11/36
s 2
f 70/107/86 71/108/85 1/1/40 2/2/121
s 4
f 74/112/92 72/110/81 41/61/80 48/75/99
s 2
f 71/109/85 73/111/79 46/70/63 1/6/40
s 4
f 62/97/82 61/96/95 50/84/16 37/56/20
f 70/107/96 74/112/92 48/75/99 39/58/122
f 75/113/104 61/96/95 12/12/94 4/4/123
f 76/114/105 75/113/104 4/4/123 22/46/124
f 68/105/106 76/114/105 22/46/124 32/47/125
s 15
f 77/115/108 68/105/107 32/47/126 31/50/127
s 1
f 67/104/110 77/115/109 31/50/128 27/38/129
s 13
f 78/116/112 67/104/111 27/38/130 25/36/131
s 12
f 78/116/115 79/117/114 57/91/55 56/90/58
s 11
f 66/103/118 79/117/117 23/44/132
s 2
f 69/106/78 59/93/44 33/51/43
s 1
f 30/118/1 28/121/4 118/120/133 117/119/134
s 2
f 5/122/5 9/125/8 84/124/135 83/123/136
f 10/126/9 44/129/12 108/128/137 104/127/138
f 9/125/8 34/131/14 121/130/139 84/124/135
s 4
f 14/132/15 3/135/18 114/134/140 113/133/141
f 14/132/15 113/133/141 103/137/142 13/136/19
s 2
f 89/138/143 91/141/144 90/140/145 88/139/146
f 89/142/143 93/145/147 92/144/148 91/143/144
f 84/146/135 128/149/149 126/148/150 83/147/151
s 21
f 82/150/152 90/140/153 87/151/154
s 4
f 91/143/155 92/144/156 87/152/157
f 86/153/158 102/155/159 109/154/160
s 2
f 81/156/161 102/155/162 101/158/163 80/157/164
f 89/142/143 127/161/165 122/160/166 100/159/167 93/145/147
s 4
f 90/140/168 91/141/155 87/151/157
s 2
f 84/146/135 127/162/165 128/149/149
s 4
f 3/135/18 21/164/48 115/163/169 114/134/140
s 11
f 83/123/170 120/166/171 24/165/51 5/122/50
s 4
f 21/164/48 29/168/54 116/167/172 115/163/169
s 12
f 120/166/173 119/170/174 26/169/57 24/165/56
s 13
f 28/121/59 26/169/62 119/170/175 118/120/176
s 2
f 110/171/177 101/158/163 93/145/147 85/172/178
s 21
f 94/173/179 99/178/180 98/177/181 97/176/182 96/175/183 95/174/184
s 15
f 30/118/71 117/119/185 116/167/186 29/168/72
s 21
f 90/140/153 82/150/152 94/173/179 95/174/184
s 2
f 83/123/151 126/180/150 129/179/187
s 21
f 88/139/188 90/140/153 95/174/184
s 2
f 100/159/167 85/181/178 93/145/147
f 100/182/167 132/185/189 123/184/190 85/183/178
f 102/155/162 92/144/148 93/145/147 101/158/163
f 110/186/177 85/183/178 123/184/190 136/187/191
s 4
f 103/137/142 125/190/192 135/189/193 107/188/194
s 2
f 105/191/195 133/194/196 134/193/197 106/192/198
s 4
f 42/195/87 13/136/19 103/137/142 107/188/194
s off
f 105/196/199 106/199/200 108/198/201 112/197/202
s 4
f 109/200/160 111/202/203 137/201/204 135/189/193
f 102/155/159 111/203/203 109/154/160
s 2
f 80/157/164 101/158/163 110/171/177
f 106/204/198 134/205/197 136/187/191 108/128/137
s 4
f 87/206/205 86/208/158 125/190/192 124/207/206
s 2
f 34/131/14 10/126/9 104/127/138 121/130/139
s 4
f 86/153/158 92/144/156 102/155/159
f 92/144/156 86/153/158 87/152/157
f 111/202/203 81/209/207 133/194/208 137/201/204
f 107/210/194 112/213/209 49/212/98 42/211/87
s 18
f 112/214/210 108/217/211 44/216/102 49/215/101
s 4
f 102/155/159 81/156/207 111/203/203
f 113/133/141 114/134/140 138/218/212 124/207/206
f 115/163/169 139/219/213 138/218/212 114/134/140
f 116/167/172 131/220/214 139/219/213 115/163/169
s 15
f 117/119/185 140/221/215 131/220/216 116/167/186
s 1
f 118/120/133 130/222/217 140/221/218 117/119/134
s 13
f 119/170/175 141/223/219 130/222/220 118/120/176
s 12
f 95/174/221 96/225/222 141/223/223 142/224/224
s 11
f 83/123/170 129/179/225 142/224/226 120/166/171
s 2
f 121/130/139 132/185/189 122/226/166 84/124/135
f 128/149/149 88/139/227 126/148/150
f 127/161/165 84/227/135 122/160/166
f 127/162/165 89/138/143 88/139/227 128/149/149
f 126/180/150 88/139/227 95/174/228 129/179/187
f 132/185/189 121/130/139 104/127/138 123/184/190
f 123/184/190 104/127/138 108/128/137 136/187/191
s 4
f 125/190/192 86/208/158 109/200/160 135/189/193
s 2
f 133/194/196 81/209/229 80/228/164 134/193/197
s 4
f 137/201/204 112/229/209 107/188/194 135/189/193
s 2
f 134/205/197 80/230/164 110/186/177 136/187/191
s 4
f 125/190/192 103/137/142 113/133/141 124/207/206
f 133/194/208 105/191/230 112/229/209 137/201/204
f 138/218/212 82/231/231 87/206/205 124/207/206
f 139/219/213 94/173/232 82/231/231 138/218/212
f 131/220/214 99/232/233 94/173/232 139/219/213
s 15
f 140/221/215 98/233/234 99/232/235 131/220/216
s 1
f 130/222/217 97/234/236 98/233/237 140/221/218
s 13
f 141/223/219 96/225/238 97/234/239 130/222/220
s 12
f 141/223/223 119/170/174 120/166/173 142/224/224
s 11
f 129/179/225 95/174/240 142/224/226
s 2
f 132/185/189 100/182/167 122/226/166
